<?xml version="1.0" standalone="no"?>
<!DOCTYPE svg PUBLIC "-//W3C//DTD SVG 20010904//EN"
 "http://www.w3.org/TR/2001/REC-SVG-20010904/DTD/svg10.dtd">
<svg version="1.0" xmlns="http://www.w3.org/2000/svg"
 width="787.000000pt" height="1280.000000pt" viewBox="0 0 787.000000 1280.000000"
 preserveAspectRatio="xMidYMid meet">
<metadata>
Created by potrace 1.15, written by Peter Selinger 2001-2017
</metadata>
<g transform="translate(0.000000,1280.000000) scale(0.100000,-0.100000)"
fill="#000000" stroke="none">
<path d="M3460 12790 c-190 -22 -429 -91 -604 -175 -229 -110 -425 -253 -631
-460 -163 -163 -268 -292 -405 -497 l-89 -133 272 -6 c322 -8 446 -25 601 -83
97 -37 139 -61 206 -120 35 -30 88 -67 119 -83 49 -25 67 -28 146 -28 78 0 98
4 145 27 115 57 236 185 383 405 l99 148 116 76 c336 221 633 340 1005 403 36
7 37 8 37 49 -1 62 -32 121 -102 191 -111 110 -314 210 -537 263 -99 24 -126
26 -396 28 -159 2 -324 0 -365 -5z"/>
<path d="M4940 12203 c-440 -76 -796 -207 -1093 -403 -122 -81 -181 -153 -201
-246 -18 -82 56 -84 357 -9 297 74 430 86 506 45 11 -5 58 -10 106 -10 143 0
285 -36 450 -114 183 -86 363 -221 622 -463 l152 -143 485 0 486 0 0 36 c0 88
-60 241 -138 349 -61 85 -178 200 -402 395 -118 103 -231 204 -250 225 -53 56
-115 98 -225 153 -159 79 -309 125 -585 181 l-135 27 -135 -23z"/>
<path d="M4250 11451 c-174 -6 -249 -13 -330 -30 -304 -64 -575 -207 -778
-410 -117 -116 -248 -265 -309 -352 -122 -174 -201 -401 -232 -667 -18 -145
-14 -719 4 -828 9 -49 60 -220 115 -384 58 -174 105 -335 115 -390 33 -190 35
-196 70 -238 19 -22 54 -48 77 -57 96 -39 401 -28 502 18 73 33 146 104 201
191 24 39 84 165 134 280 147 341 191 399 412 548 233 157 450 251 694 301
163 33 445 32 598 -2 59 -13 110 -27 112 -31 6 -10 -107 -18 -360 -25 -247 -6
-295 -14 -465 -72 -465 -158 -799 -447 -1020 -883 -94 -186 -110 -247 -145
-555 -28 -240 -51 -352 -71 -332 -4 4 -11 87 -14 185 -7 191 -18 237 -62 266
-30 20 -32 20 -258 7 -195 -10 -282 -28 -423 -87 -233 -97 -490 -304 -664
-535 -79 -105 -115 -188 -156 -359 -45 -184 -52 -252 -51 -495 0 -260 15 -370
85 -665 137 -574 293 -901 594 -1250 419 -484 580 -756 645 -1085 12 -60 37
-184 57 -275 19 -91 65 -347 103 -570 68 -398 87 -500 115 -610 8 -30 19 -102
25 -160 12 -113 33 -249 104 -650 24 -140 52 -327 61 -415 21 -207 72 -554 88
-597 l12 -33 6 35 6 35 2 -42 c0 -23 -3 -45 -9 -48 -32 -20 -176 415 -197 593
-3 31 -17 89 -30 127 -13 39 -69 233 -123 432 -55 199 -122 431 -149 515 -58
181 -110 351 -225 743 -47 160 -101 337 -121 395 -20 58 -51 177 -70 265 -40
183 -75 315 -181 674 -143 487 -168 546 -354 851 -223 367 -264 437 -316 545
-84 174 -123 304 -140 464 -37 352 -99 604 -197 798 -78 154 -239 344 -373
439 -45 32 -76 66 -116 127 -194 291 -318 618 -379 995 -31 197 -35 326 -14
472 26 172 26 271 1 299 -11 12 -29 21 -41 21 -65 0 -325 -181 -454 -316 -139
-145 -233 -299 -295 -485 -48 -144 -57 -218 -59 -464 -1 -208 1 -239 22 -329
49 -213 142 -425 272 -626 197 -304 635 -695 1122 -1002 81 -51 176 -111 210
-133 80 -51 208 -180 273 -275 28 -41 97 -156 154 -255 170 -297 259 -413 380
-495 60 -41 58 -37 132 -250 40 -118 221 -741 264 -910 69 -273 111 -420 185
-651 130 -404 178 -566 205 -691 28 -133 56 -231 149 -521 36 -111 77 -251 92
-312 14 -60 38 -150 54 -200 15 -49 46 -169 69 -265 86 -363 138 -510 228
-646 77 -116 126 -137 206 -90 77 45 147 172 211 381 20 66 45 167 55 225 10
58 37 161 60 229 22 69 79 269 126 445 47 176 98 360 114 410 16 50 47 165 69
256 22 91 97 363 166 605 69 241 139 500 156 575 42 189 102 411 239 883 65
224 151 543 190 710 39 166 88 363 107 438 l36 135 76 44 c122 71 302 193 413
282 299 239 635 629 792 919 203 377 314 961 251 1324 -42 243 -143 493 -291
718 -35 54 -78 125 -94 157 -38 76 -130 174 -222 237 -40 27 -140 87 -221 133
-160 91 -255 167 -289 234 -34 65 -30 151 12 251 34 80 34 80 34 245 0 186
-18 295 -80 480 -143 431 -467 817 -827 988 -239 114 -400 137 -857 123z m920
-531 c111 -57 229 -241 264 -414 26 -125 -13 -150 -97 -63 -29 30 -57 66 -63
79 -6 12 -19 40 -28 61 -9 21 -52 82 -95 135 -116 143 -131 184 -78 210 33 16
54 14 97 -8z m-135 -331 c45 -40 65 -78 65 -124 0 -79 -106 -128 -157 -72 -34
37 -43 63 -43 126 0 52 3 62 26 80 37 29 67 26 109 -10z m1544 -2304 c87 -121
143 -340 144 -560 0 -180 -39 -285 -106 -285 -23 0 -24 2 -30 108 -3 59 -22
190 -42 292 -45 231 -54 354 -31 433 9 31 20 57 25 57 4 0 22 -20 40 -45z
m-249 -295 c55 -55 74 -123 68 -249 -9 -198 -89 -251 -151 -99 -30 75 -55 295
-38 340 22 58 67 62 121 8z m-2659 -830 c54 -225 112 -420 220 -737 105 -308
143 -398 341 -803 80 -162 168 -353 198 -423 49 -120 52 -133 47 -189 -7 -82
-61 -189 -131 -261 -54 -57 -96 -74 -96 -40 0 9 20 60 45 113 52 111 70 190
61 275 -15 147 -77 297 -228 555 -169 289 -156 260 -303 670 -167 462 -215
659 -215 876 0 101 10 190 18 149 2 -11 21 -94 43 -185z m-1287 -303 c34 -59
49 -154 41 -257 -8 -100 -44 -250 -78 -324 -27 -58 -82 -126 -103 -126 -32 0
-68 196 -68 370 0 203 40 334 117 380 38 24 58 15 91 -43z m306 -185 c50 -49
59 -95 37 -180 -30 -113 -129 -237 -185 -230 -44 5 -58 47 -44 138 6 41 19 95
30 120 10 25 27 67 37 94 17 47 57 96 78 96 5 0 26 -17 47 -38z m2719 -1522
c-15 -103 -38 -237 -60 -340 -46 -222 -206 -822 -289 -1090 -98 -313 -172
-592 -239 -896 -22 -98 -52 -213 -67 -254 -50 -140 -103 -329 -205 -732 -56
-223 -120 -453 -144 -517 -48 -129 -93 -290 -185 -673 -35 -142 -66 -258 -70
-258 -24 0 -27 318 -5 505 8 72 35 243 59 380 58 326 64 370 76 560 14 212 48
497 109 911 28 186 57 417 66 513 15 161 32 308 117 993 l33 268 43 0 c82 0
96 23 112 179 13 122 27 166 65 206 34 37 87 55 160 55 48 0 57 5 185 100 112
83 240 164 246 157 1 -1 -2 -31 -7 -67z m-906 -695 c18 -58 22 -91 21 -195 -2
-131 -3 -135 -99 -595 -41 -195 -47 -238 -50 -375 -3 -109 -18 -252 -49 -485
-54 -395 -91 -717 -106 -915 -6 -80 -20 -190 -30 -245 -29 -146 -47 -279 -75
-555 -29 -278 -55 -450 -91 -594 l-25 -99 25 -26 c50 -53 61 -143 25 -221 -26
-58 -47 -80 -75 -80 -17 0 -25 8 -33 33 -6 19 -14 324 -21 760 -6 401 -15 797
-20 880 -5 84 -10 235 -10 337 0 102 -5 241 -10 310 -28 381 -23 608 16 739
l15 52 47 -7 c33 -4 59 -1 84 9 65 27 68 98 13 328 -8 35 -15 100 -15 144 0
102 29 171 87 210 22 14 50 40 63 57 152 206 258 466 248 609 l-3 50 23 -28
c12 -15 32 -59 45 -98z m-1150 -712 c105 -53 155 -130 227 -353 56 -172 83
-218 147 -251 103 -53 119 -177 88 -660 -16 -233 -17 -296 -7 -381 7 -57 12
-149 12 -204 0 -56 9 -272 21 -480 21 -376 20 -706 -1 -809 l-8 -40 -1 37 c-2
72 -33 286 -68 468 -19 102 -48 253 -63 336 -34 176 -66 403 -75 524 -3 47
-14 117 -25 155 -32 117 -68 308 -120 645 -54 352 -91 543 -121 633 -11 31
-35 130 -53 220 -19 89 -37 170 -41 181 -7 16 -5 17 16 11 13 -4 46 -18 72
-32z"/>
<path d="M1770 11405 c-501 -112 -801 -277 -983 -540 -27 -38 -73 -101 -103
-140 -104 -134 -193 -337 -234 -537 -47 -231 -51 -552 -11 -848 28 -203 42
-243 105 -298 85 -75 223 -47 370 74 72 60 161 184 177 249 26 101 269 362
455 487 243 164 556 272 779 270 107 -1 153 15 207 76 56 62 94 146 170 377
85 261 147 391 223 466 30 30 55 57 55 61 0 16 -132 112 -211 153 -196 101
-466 167 -741 180 -92 4 -120 1 -258 -30z m-757 -776 c23 -32 25 -91 4 -140
-39 -94 -184 -219 -252 -219 -62 0 -68 38 -26 151 69 182 212 291 274 208z"/>
<path d="M6190 10791 c-185 -9 -230 -35 -238 -134 -6 -70 14 -144 99 -365 109
-285 119 -354 73 -489 -36 -104 -38 -231 -5 -313 51 -125 124 -203 397 -421
202 -163 263 -226 367 -384 207 -314 318 -644 360 -1067 l12 -121 80 85 c189
201 339 466 446 790 71 214 82 291 83 558 1 246 -8 332 -55 528 -51 209 -125
380 -260 594 -180 287 -369 474 -610 602 -227 121 -408 154 -749 137z m1099
-846 c45 -23 107 -100 121 -150 21 -73 -6 -145 -53 -145 -32 0 -80 44 -112
101 -16 30 -37 60 -47 67 -46 34 -43 74 10 119 32 27 43 28 81 8z"/>
<path d="M2137 10004 c-441 -118 -708 -292 -945 -615 -17 -24 -50 -66 -73 -94
-52 -63 -92 -148 -121 -250 -19 -71 -22 -105 -22 -305 -1 -124 3 -337 7 -475
8 -236 11 -257 42 -380 49 -189 109 -350 192 -515 91 -182 180 -307 308 -435
93 -94 268 -225 282 -212 3 4 36 98 73 209 105 317 188 488 310 642 62 78 166
171 223 199 17 9 76 36 129 61 184 87 281 210 281 357 0 88 -33 189 -89 276
-116 181 -190 417 -229 733 -17 144 -35 458 -35 638 0 119 -1 124 -25 146 -54
51 -168 58 -308 20z m-706 -1278 c0 -331 -40 -419 -140 -311 l-41 45 0 108 c0
167 36 254 127 312 26 17 48 28 50 26 2 -2 4 -83 4 -180z m214 23 c31 -52 28
-169 -5 -229 -29 -52 -64 -65 -74 -28 -23 89 12 307 48 295 6 -2 20 -19 31
-38z"/>
</g>
</svg>
